#N canvas 92 117 655 453 12;
#X obj 187 164 openpanel;
#X obj 188 257 readsf~;
#X msg 189 232 open \$1;
#X obj 269 193 symbol;
#X obj 87 204 t b b;
#X obj 141 126 0;
#X msg 111 242 start;
#X obj 129 167 outlet;
#X obj 190 296 outlet~;
#X obj 45 43 inlet;
#X obj 85 99 == 1;
#X obj 191 59 select 1;
#X obj 39 101 == 0;
#X obj 39 140 select 1;
#X connect 0 0 2 0;
#X connect 0 0 3 0;
#X connect 1 0 8 0;
#X connect 2 0 1 0;
#X connect 3 0 2 0;
#X connect 4 0 6 0;
#X connect 4 1 3 0;
#X connect 5 0 7 0;
#X connect 6 0 1 0;
#X connect 9 0 10 0;
#X connect 9 0 12 0;
#X connect 10 0 11 0;
#X connect 11 0 0 0;
#X connect 11 0 5 0;
#X connect 12 0 13 0;
#X connect 13 0 4 0;
