#N canvas 18 25 1132 758 12;
#X obj 23 60 == 0;
#X obj 205 62 nbx 5 14 10 500 0 1 empty empty Tempo\ (BPM) 64 7 0 12 #fcfcfc #000000 #000000 156 256;
#X obj 72 50 metro;
#X obj 354 63 nbx 5 14 0 100 0 0 empty empty Swing\ (%) 64 7 0 12 #fcfcfc #000000 #000000 0 256;
#X obj 75 14 tgl 15 0 empty empty Play 17 7 0 10 #fcfcfc #000000 #000000 0 1;
#X floatatom 72 240 5 0 0 0 - - - 0;
#X obj 173 333 euclid;
#X floatatom 231 96 5 1 16 1 Total\ Steps - - 0;
#X floatatom 501 104 5 1 16 1 Channel\ steps - - 0;
#X floatatom 503 138 5 0 16 1 Hits - - 0;
#X floatatom 502 167 5 0 15 1 Offset - - 0;
#X floatatom 357 96 7 0 50 1 Randomness - - 0;
#X obj 173 305 pack f f f f f f;
#X obj 108 419 stdkick;
#X obj 217 540 dac~;
#X floatatom 652 103 5 1 16 1 Channel\ steps - - 0;
#X floatatom 654 137 5 0 16 1 Hits - - 0;
#X obj 397 303 pack f f f f f f;
#X floatatom 823 102 5 1 16 1 Channel\ steps - - 0;
#X floatatom 825 136 5 0 16 1 Hits - - 0;
#X floatatom 824 165 5 0 15 1 Offset - - 0;
#X obj 683 306 pack f f f f f f;
#X obj 397 338 euclid;
#X obj 685 341 euclid;
#X obj 400 440 stdsnare;
#X obj 694 431 stdhat;
#X floatatom 655 166 5 0 15 1 Offset - - 0;
#X obj 257 349 bng 40 250 50 0 empty empty SAMPLE\ SELECT 0 -10 0 12 #fcfcfc #000000 #000000;
#X obj 183 420 customsample;
#X obj 103 367 moses;
#X obj 18 491 + 1;
#X obj 163 384 0;
#X obj 201 389 1;
#X obj 552 350 bng 40 250 50 0 empty empty SAMPLE\ SELECT 0 -10 0 12 #fcfcfc #000000 #000000;
#X obj 478 421 customsample;
#X obj 398 368 moses;
#X obj 458 385 0;
#X obj 496 390 1;
#X obj 840 355 bng 40 250 50 0 empty empty SAMPLE\ SELECT 0 -10 0 12 #fcfcfc #000000 #000000;
#X obj 766 419 customsample;
#X obj 686 373 moses;
#X obj 746 390 0;
#X obj 784 395 1;
#X obj 75 126 pulse;
#X obj 165 173 bng 30 250 50 0 empty empty ETTAN 0 40 0 12 #fcfcfc #000000 #000000;
#X obj 75 95 pack b f f f f;
#X obj 128 16 expr 30000/$f1;
#X text 496 74 KICK;
#X text 649 69 SNARE;
#X text 819 70 HI-HAT;
#X text 272 34 GLOBAL CONTROLS;
#X obj 79 619 hsl 120 19 0 2 0 0 empty empty volume -2 -10 0 12 #fcfcfc #000000 #000000 0 1;
#X obj 79 578 hsl 120 19 0 1 0 0 empty empty pan -2 -10 0 12 #fcfcfc #000000 #000000 0 0;
#X obj 211 511 volpanmodule;
#X msg 112 505 0.5;
#X msg 76 510 1;
#X obj 104 448 pack f f;
#X obj 409 626 hsl 120 19 0 2 0 0 empty empty volume -2 -10 0 12 #fcfcfc #000000 #000000 0 1;
#X obj 409 585 hsl 120 19 0 1 0 0 empty empty pan -2 -10 0 12 #fcfcfc #000000 #000000 0 0;
#X obj 399 465 pack f f;
#X obj 721 625 hsl 120 19 0 2 0 0 empty empty volume -2 -10 0 12 #fcfcfc #000000 #000000 0 1;
#X obj 721 584 hsl 120 19 0 1 0 0 empty empty pan -2 -10 0 12 #fcfcfc #000000 #000000 0 0;
#X obj 690 459 pack f f;
#X obj 113 172 bng 30 250 50 0 empty empty PULSEN 0 40 0 12 #fcfcfc #000000 #000000;
#X obj 220 583 hsl 162 19 20 15000 1 0 empty empty cut-off -2 -10 0 12 #fcfcfc #000000 #000000 0 1;
#X obj 221 647 hsl 162 19 0.01 4 0 0 empty empty resonant\ Q -2 -10 0 12 #fcfcfc #000000 #000000 0 1;
#X floatatom 218 609 5 0 0 0 - - - 0;
#X floatatom 215 672 5 0 0 0 - - - 0;
#X obj 270 483 pack f f;
#X obj 211 485 filter;
#X obj 269 462 bng 19 250 50 0 empty empty empty 0 -10 0 12 #fcfcfc #000000 #000000;
#X text 27 723 pitch \, sample banks;
#X obj 495 531 dac~;
#X obj 489 502 volpanmodule;
#X obj 556 477 pack f f;
#X obj 489 476 filter;
#X obj 547 453 bng 19 250 50 0 empty empty empty 0 -10 0 12 #fcfcfc #000000 #000000;
#X obj 776 524 dac~;
#X obj 770 495 volpanmodule;
#X obj 829 467 pack f f;
#X obj 770 469 filter;
#X obj 828 446 bng 19 250 50 0 empty empty empty 0 -10 0 12 #fcfcfc #000000 #000000;
#X obj 538 583 hsl 162 19 20 15000 1 0 empty empty cut-off -2 -10 0 12 #fcfcfc #000000 #000000 0 1;
#X obj 539 647 hsl 162 19 0.01 4 0 0 empty empty resonant\ Q -2 -10 0 12 #fcfcfc #000000 #000000 0 1;
#X floatatom 536 609 5 0 0 0 - - - 0;
#X floatatom 533 672 5 0 0 0 - - - 0;
#X obj 860 585 hsl 162 19 20 15000 1 0 empty empty cut-off -2 -10 0 12 #fcfcfc #000000 #000000 0 1;
#X obj 861 649 hsl 162 19 0.01 4 0 0 empty empty resonant\ Q -2 -10 0 12 #fcfcfc #000000 #000000 0 1;
#X floatatom 858 611 5 0 0 0 - - - 0;
#X floatatom 855 674 5 0 0 0 - - - 0;
#X connect 0 0 30 0;
#X connect 0 0 45 4;
#X connect 1 0 46 0;
#X connect 2 0 45 0;
#X connect 3 0 45 2;
#X connect 4 0 2 0;
#X connect 4 0 0 0;
#X connect 5 0 12 0;
#X connect 5 0 17 0;
#X connect 5 0 21 0;
#X connect 6 0 29 0;
#X connect 6 0 70 0;
#X connect 7 0 12 4;
#X connect 7 0 17 4;
#X connect 7 0 21 4;
#X connect 7 0 45 3;
#X connect 8 0 12 3;
#X connect 9 0 12 2;
#X connect 10 0 12 1;
#X connect 11 0 12 5;
#X connect 11 0 21 5;
#X connect 11 0 17 5;
#X connect 12 0 6 0;
#X connect 13 0 69 0;
#X connect 15 0 17 3;
#X connect 16 0 17 2;
#X connect 17 0 22 0;
#X connect 18 0 21 3;
#X connect 19 0 21 2;
#X connect 20 0 21 1;
#X connect 21 0 23 0;
#X connect 22 0 35 0;
#X connect 22 0 76 0;
#X connect 23 0 40 0;
#X connect 23 0 81 0;
#X connect 24 0 75 0;
#X connect 25 0 80 0;
#X connect 26 0 17 1;
#X connect 27 0 32 0;
#X connect 28 0 29 1;
#X connect 28 1 69 0;
#X connect 29 0 13 0;
#X connect 29 1 31 0;
#X connect 30 0 29 1;
#X connect 30 0 35 1;
#X connect 30 0 40 1;
#X connect 30 0 54 0;
#X connect 30 0 55 0;
#X connect 31 0 28 0;
#X connect 32 0 28 0;
#X connect 33 0 37 0;
#X connect 34 0 35 1;
#X connect 34 1 75 0;
#X connect 35 0 24 0;
#X connect 35 1 36 0;
#X connect 36 0 34 0;
#X connect 37 0 34 0;
#X connect 38 0 42 0;
#X connect 39 0 40 1;
#X connect 39 1 80 0;
#X connect 40 0 25 0;
#X connect 40 1 41 0;
#X connect 41 0 39 0;
#X connect 42 0 39 0;
#X connect 43 0 5 0;
#X connect 43 0 63 0;
#X connect 43 1 44 0;
#X connect 45 0 43 0;
#X connect 46 0 2 1;
#X connect 46 0 45 1;
#X connect 51 0 56 0;
#X connect 52 0 56 1;
#X connect 53 0 14 0;
#X connect 53 1 14 0;
#X connect 54 0 52 0;
#X connect 54 0 58 0;
#X connect 54 0 61 0;
#X connect 55 0 51 0;
#X connect 55 0 57 0;
#X connect 55 0 60 0;
#X connect 56 0 53 1;
#X connect 57 0 59 0;
#X connect 58 0 59 1;
#X connect 59 0 73 1;
#X connect 60 0 62 0;
#X connect 61 0 62 1;
#X connect 62 0 78 1;
#X connect 64 0 66 0;
#X connect 65 0 67 0;
#X connect 66 0 68 0;
#X connect 67 0 68 1;
#X connect 68 0 69 1;
#X connect 69 0 53 0;
#X connect 70 0 68 0;
#X connect 73 0 72 0;
#X connect 73 1 72 0;
#X connect 74 0 75 1;
#X connect 75 0 73 0;
#X connect 76 0 74 0;
#X connect 78 0 77 0;
#X connect 78 1 77 0;
#X connect 79 0 80 1;
#X connect 80 0 78 0;
#X connect 81 0 79 0;
#X connect 82 0 84 0;
#X connect 83 0 85 0;
#X connect 84 0 74 0;
#X connect 85 0 74 1;
#X connect 86 0 88 0;
#X connect 87 0 89 0;
#X connect 88 0 79 0;
#X connect 89 0 79 1;
