#N canvas 759 114 821 668 12;
#X obj 23 60 == 0;
#X obj 370 26 nbx 5 14 10 500 0 1 empty empty Tempo\ (BPM) 64 7 0 12 #fcfcfc #000000 #000000 283 256;
#X obj 75 172 bng 15 250 50 0 empty empty empty 17 7 0 10 #fcfcfc #000000 #000000;
#X obj 75 80 metro;
#X obj 75 103 f;
#X obj 105 103 + 1;
#X obj 75 126 route 0 1;
#X obj 140 126 *;
#X obj 373 81 nbx 5 14 0 100 0 0 empty empty Swing\ (%) 64 7 0 12 #fcfcfc #000000 #000000 0 256;
#X obj 124 50 expr 60000/$f1;
#X obj 135 103 mod 2;
#X obj 100 149 del;
#X obj 176 103 / 100;
#X obj 75 14 tgl 15 0 empty empty Play 17 7 0 10 #fcfcfc #000000 #000000 0 1;
#X obj 137 215 + 1;
#X obj 75 213 f;
#X floatatom 79 240 5 0 0 0 - - - 0;
#X obj 128 270 mod;
#X obj 175 375 euclid;
#X floatatom 320 142 5 1 16 1 Total\ Steps - - 0;
#X floatatom 316 173 5 1 16 1 Channel\ steps - - 0;
#X floatatom 318 207 5 0 16 1 Hits - - 0;
#X floatatom 317 236 5 0 15 1 Offset - - 0;
#X floatatom 317 265 7 0 100 1 Randomness - - 0;
#X obj 175 347 pack f f f f f f;
#X obj 175 406 stdkick;
#X obj 173 442 dac~;
#X floatatom 521 135 5 1 16 1 Total\ Steps - - 0;
#X floatatom 519 171 5 1 16 1 Channel\ steps - - 0;
#X floatatom 521 205 5 0 16 1 Hits - - 0;
#X floatatom 520 234 5 0 15 1 Offset - - 0;
#X floatatom 520 263 7 0 100 1 Randomness - - 0;
#X obj 378 345 pack f f f f f f;
#X floatatom 779 148 5 1 16 1 Total\ Steps - - 0;
#X floatatom 775 179 5 1 16 1 Channel\ steps - - 0;
#X floatatom 777 213 5 0 16 1 Hits - - 0;
#X floatatom 776 242 5 0 15 1 Offset - - 0;
#X floatatom 776 271 7 0 100 1 Randomness - - 0;
#X obj 634 353 pack f f f f f f;
#X obj 378 380 euclid;
#X obj 376 447 dac~;
#X obj 636 388 euclid;
#X obj 634 455 dac~;
#X obj 378 411 stdsnare;
#X obj 636 419 stdhat;
#X connect 0 0 15 1;
#X connect 1 0 9 0;
#X connect 2 0 15 0;
#X connect 2 0 17 0;
#X connect 3 0 4 0;
#X connect 4 0 5 0;
#X connect 4 0 6 0;
#X connect 5 0 10 0;
#X connect 6 0 2 0;
#X connect 6 1 11 0;
#X connect 7 0 11 1;
#X connect 8 0 12 0;
#X connect 9 0 3 1;
#X connect 9 0 7 1;
#X connect 10 0 4 1;
#X connect 11 0 2 0;
#X connect 12 0 7 0;
#X connect 13 0 3 0;
#X connect 13 0 0 0;
#X connect 14 0 15 1;
#X connect 15 0 14 0;
#X connect 15 0 16 0;
#X connect 16 0 17 0;
#X connect 16 0 24 0;
#X connect 16 0 32 0;
#X connect 16 0 38 0;
#X connect 18 0 25 0;
#X connect 19 0 24 4;
#X connect 20 0 24 3;
#X connect 21 0 24 2;
#X connect 22 0 24 1;
#X connect 23 0 24 5;
#X connect 24 0 18 0;
#X connect 25 0 26 0;
#X connect 25 0 26 1;
#X connect 27 0 32 4;
#X connect 28 0 32 3;
#X connect 29 0 32 2;
#X connect 30 0 32 1;
#X connect 31 0 32 5;
#X connect 32 0 39 0;
#X connect 33 0 38 4;
#X connect 34 0 38 3;
#X connect 35 0 38 2;
#X connect 36 0 38 1;
#X connect 37 0 38 5;
#X connect 38 0 41 0;
#X connect 39 0 43 0;
#X connect 41 0 44 0;
#X connect 43 0 40 0;
#X connect 43 0 40 1;
#X connect 44 0 42 0;
#X connect 44 0 42 1;
