#N canvas 310 42 1105 687 12;
#X obj 63 426 select 1;
#X obj 902 621 readsf~;
#X obj 887 684 dac~;
#X msg 897 579 start;
#X msg 844 580 stop;
#X obj 929 522 t b b;
#X msg 952 674 open kick.wav;
#X floatatom 371 128 5 1 16 1 Total\ Steps - - 0;
#X floatatom 369 156 5 1 16 1 Channel\ steps - - 0;
#X floatatom 370 186 5 0 16 1 Hits - - 0;
#X obj 64 699 select 1;
#X floatatom 370 219 5 0 15 1 Offset - - 0;
#X obj 23 60 == 0;
#X floatatom 205 263 5 0 0 0 - - - 0;
#X obj 217 315 clip;
#X obj 217 349 clip;
#X obj 246 452 clip;
#X floatatom 255 262 5 0 0 0 - - - 0;
#X obj 291 329 - 1;
#X obj 66 505 f;
#X obj 114 504 + 1;
#X floatatom 65 537 5 0 0 0 - - - 0;
#X obj 66 466 bng 19 250 50 0 empty empty empty 0 -10 0 12 #fcfcfc #000000 #000000;
#X obj 64 569 +;
#X obj 64 601 *;
#X obj 64 634 %;
#X obj 64 667 <;
#X obj 63 296 +;
#X obj 63 328 *;
#X obj 63 361 %;
#X obj 63 394 <;
#X obj 370 26 nbx 5 14 10 500 0 1 empty empty Tempo\ (BPM) 64 7 0 12 #fcfcfc #000000 #000000 97 256;
#X obj 75 172 bng 15 250 50 0 empty empty empty 17 7 0 10 #fcfcfc #000000 #000000;
#X obj 75 80 metro;
#X obj 75 103 f;
#X obj 105 103 + 1;
#X obj 75 126 route 0 1;
#X obj 140 126 *;
#X obj 372 83 nbx 5 14 0 100 0 0 empty empty Swing\ (%) 64 7 0 12 #fcfcfc #000000 #000000 0 256;
#X obj 102 57 expr 60000/$f1;
#X obj 135 103 mod 2;
#X obj 100 149 del;
#X obj 176 103 / 100;
#X obj 75 14 tgl 15 0 empty empty Play 17 7 0 10 #fcfcfc #000000 #000000 0 1;
#X obj 137 215 + 1;
#X obj 75 213 f;
#X floatatom 79 240 5 0 0 0 - - - 0;
#X obj 378 278 bng 19 250 50 0 empty empty empty 0 -10 0 12 #fcfcfc #000000 #000000;
#X floatatom 379 357 5 0 0 0 - - - 0;
#X obj 378 322 random 100;
#X floatatom 499 358 7 0 100 1 Randomness - - 0;
#X obj 378 428 select 1;
#X obj 380 474 bng 19 250 50 0 empty empty empty 0 -10 0 12 #fcfcfc #000000 #000000;
#X obj 436 357 - 1;
#X obj 380 393 >;
#X obj 138 695 select 0;
#X obj 443 509 bng 19 250 50 0 empty empty empty 0 -10 0 12 #fcfcfc #000000 #000000;
#X floatatom 445 574 5 0 0 0 - - - 0;
#X obj 444 539 random 100;
#X obj 444 645 select 1;
#X obj 446 691 bng 19 250 50 0 empty empty empty 0 -10 0 12 #fcfcfc #000000 #000000;
#X obj 385 552 -;
#X floatatom 330 503 5 0 0 0 - - - 0;
#X obj 446 610 >;
#X floatatom 402 579 5 0 0 0 - - - 0;
#X connect 0 0 22 0;
#X connect 1 0 2 0;
#X connect 1 0 2 1;
#X connect 3 0 1 0;
#X connect 4 0 1 0;
#X connect 5 0 3 0;
#X connect 5 1 6 0;
#X connect 6 0 1 0;
#X connect 7 0 17 0;
#X connect 8 0 14 0;
#X connect 8 0 15 2;
#X connect 9 0 18 0;
#X connect 9 0 15 0;
#X connect 10 0 47 0;
#X connect 11 0 16 0;
#X connect 12 0 19 1;
#X connect 12 0 45 1;
#X connect 13 0 14 1;
#X connect 13 0 15 1;
#X connect 13 0 16 1;
#X connect 14 0 25 1;
#X connect 14 0 28 1;
#X connect 14 0 30 1;
#X connect 15 0 24 1;
#X connect 15 0 26 1;
#X connect 16 0 23 1;
#X connect 16 0 27 1;
#X connect 17 0 14 2;
#X connect 17 0 29 1;
#X connect 18 0 16 2;
#X connect 19 0 20 0;
#X connect 19 0 21 0;
#X connect 20 0 19 1;
#X connect 21 0 23 0;
#X connect 22 0 19 0;
#X connect 23 0 24 0;
#X connect 24 0 25 0;
#X connect 25 0 26 0;
#X connect 26 0 10 0;
#X connect 26 0 55 0;
#X connect 27 0 28 0;
#X connect 28 0 29 0;
#X connect 29 0 30 0;
#X connect 30 0 0 0;
#X connect 31 0 39 0;
#X connect 32 0 45 0;
#X connect 33 0 34 0;
#X connect 34 0 35 0;
#X connect 34 0 36 0;
#X connect 35 0 40 0;
#X connect 36 0 32 0;
#X connect 36 1 41 0;
#X connect 37 0 41 1;
#X connect 38 0 42 0;
#X connect 39 0 33 1;
#X connect 39 0 37 1;
#X connect 40 0 34 1;
#X connect 41 0 32 0;
#X connect 42 0 37 0;
#X connect 43 0 33 0;
#X connect 43 0 12 0;
#X connect 44 0 45 1;
#X connect 45 0 44 0;
#X connect 45 0 46 0;
#X connect 46 0 27 0;
#X connect 47 0 49 0;
#X connect 48 0 54 0;
#X connect 49 0 48 0;
#X connect 50 0 53 0;
#X connect 50 0 61 1;
#X connect 51 0 52 0;
#X connect 52 0 5 0;
#X connect 52 0 62 0;
#X connect 53 0 54 1;
#X connect 54 0 51 0;
#X connect 55 0 56 0;
#X connect 56 0 58 0;
#X connect 57 0 63 0;
#X connect 58 0 57 0;
#X connect 59 0 60 0;
#X connect 60 0 5 0;
#X connect 61 0 64 0;
#X connect 62 0 61 0;
#X connect 63 0 59 0;
#X connect 64 0 63 1;
