#N canvas 546 146 729 636 12;
#X obj 35 358 select 1;
#X obj 124 425 select 1;
#X obj 126 231 f;
#X obj 174 230 + 1;
#X floatatom 125 263 5 0 0 0 - - - 0;
#X obj 38 398 bng 19 250 50 0 empty empty empty 0 -10 0 12 #fcfcfc #000000 #000000;
#X obj 124 295 +;
#X obj 124 327 *;
#X obj 124 393 <;
#X obj 35 228 +;
#X obj 35 260 *;
#X obj 35 326 <;
#X obj 198 421 select 0;
#X obj 35 293 mod;
#X obj 124 360 mod;
#X obj 307 222 bng 19 250 50 0 empty empty empty 0 -10 0 12 #fcfcfc #000000 #000000;
#X floatatom 308 301 5 0 0 0 - - - 0;
#X obj 307 266 random 100;
#X floatatom 424 218 7 0 100 1 Randomness - - 0;
#X obj 307 372 select 1;
#X obj 309 418 bng 19 250 50 0 empty empty empty 0 -10 0 12 #fcfcfc #000000 #000000;
#X obj 365 301 - 1;
#X obj 309 337 >;
#X obj 442 321 bng 19 250 50 0 empty empty empty 0 -10 0 12 #fcfcfc #000000 #000000;
#X floatatom 444 386 5 0 0 0 - - - 0;
#X obj 443 351 random 100;
#X obj 443 457 select 1;
#X obj 445 503 bng 19 250 50 0 empty empty empty 0 -10 0 12 #fcfcfc #000000 #000000;
#X obj 314 496 -;
#X floatatom 331 523 5 0 0 0 - - - 0;
#X obj 310 450 100;
#X obj 445 422 >;
#X obj 91 38 inlet;
#X obj 307 596 outlet;
#X listbox 106 75 20 0 0 0 - - - 0;
#X obj 307 566 0;
#X obj 96 132 unpack f f f f f f f;
#X obj 311 181 *;
#X floatatom 311 48 5 0 0 0 - - - 0;
#X obj 308 19 * 100;
#X obj 309 105 random;
#X obj 309 78 t b f;
#X obj 309 155 + 1;
#X obj 309 131 / 100;
#X connect 0 0 5 0;
#X connect 1 0 15 0;
#X connect 2 0 3 0;
#X connect 2 0 4 0;
#X connect 3 0 2 1;
#X connect 4 0 6 0;
#X connect 5 0 2 0;
#X connect 6 0 7 0;
#X connect 7 0 14 0;
#X connect 8 0 1 0;
#X connect 8 0 12 0;
#X connect 9 0 10 0;
#X connect 10 0 13 0;
#X connect 11 0 0 0;
#X connect 12 0 23 0;
#X connect 13 0 11 0;
#X connect 14 0 8 0;
#X connect 15 0 17 0;
#X connect 16 0 22 0;
#X connect 17 0 16 0;
#X connect 18 0 21 0;
#X connect 18 0 28 1;
#X connect 19 0 20 0;
#X connect 20 0 30 0;
#X connect 20 0 35 0;
#X connect 21 0 22 1;
#X connect 22 0 19 0;
#X connect 23 0 25 0;
#X connect 24 0 31 0;
#X connect 25 0 24 0;
#X connect 26 0 27 0;
#X connect 27 0 35 0;
#X connect 28 0 29 0;
#X connect 29 0 31 1;
#X connect 30 0 28 0;
#X connect 31 0 26 0;
#X connect 32 0 34 0;
#X connect 34 0 36 0;
#X connect 35 0 33 0;
#X connect 36 0 9 0;
#X connect 36 1 6 1;
#X connect 36 2 7 1;
#X connect 36 2 8 1;
#X connect 36 3 14 1;
#X connect 36 3 11 1;
#X connect 36 3 10 1;
#X connect 36 4 13 1;
#X connect 36 5 37 0;
#X connect 36 6 39 0;
#X connect 37 0 18 0;
#X connect 38 0 41 0;
#X connect 39 0 38 0;
#X connect 40 0 43 0;
#X connect 41 0 40 0;
#X connect 41 1 40 1;
#X connect 42 0 37 1;
#X connect 43 0 42 0;
