#N canvas 192 133 1440 742 12;
#X msg 36 117 devices;
#X msg 162 118 close;
#X obj 32 186 print;
#X obj 212 84 sel 13 10;
#X obj 213 141 list tosymbol;
#X obj 214 195 unpack f f f f f f f f f f f f f f f f f f f f f f f f f f f f f f f f f f f f f f f f f f f f f f f f f f f f f f f f f f f, f 175;
#X msg 98 117 open 5;
#X obj 56 414 == 0;
#X obj 48 290 metro;
#X obj 94 267 tgl 15 0 empty empty Play 17 7 0 10 #fcfcfc #000000 #000000 0 1;
#X floatatom 53 382 5 0 0 0 - - - 0;
#X obj 300 251 pack f f f f f f;
#X obj 300 276 euclid;
#X obj 303 327 moses;
#X obj 53 351 pulse;
#X obj 182 386 bng 30 250 50 0 empty empty ETTAN 0 40 0 12 #fcfcfc #000000 #000000;
#X obj 53 325 pack b f f f f;
#X obj 94 291 expr 30000/$f1;
#X obj 130 385 bng 30 250 50 0 empty empty PULSEN 0 40 0 12 #fcfcfc #000000 #000000;
#X obj 94 219 change;
#X floatatom 379 304 3 0 0 0 - - - 0;
#X floatatom 381 277 5 0 0 0 - - - 0;
#X obj 235 251 pack f f;
#X msg 340 302 0;
#X obj 227 289 pack f f;
#X obj 235 417 moog_filter;
#X obj 235 445 vol_pan_module;
#X obj 235 473 dac~;
#X obj 232 327 pack f f;
#X obj 299 353 pack f f;
#X obj 94 243 select 1;
#X floatatom 165 196 5 0 0 0 - - - 0;
#X obj 32 158 comport 0 9600;
#X obj 213 114 zl group 200;
#X obj 214 168 fromsymbol;
#X floatatom 164 168 5 0 0 0 - - - 0;
#X obj 169 143 bng 19 250 50 0 empty empty empty 0 -10 0 12 #fcfcfc #000000 #000000;
#X msg 305 302 0;
#X obj 500 252 pack f f f f f f;
#X obj 500 277 euclid;
#X obj 503 328 moses;
#X floatatom 579 305 3 0 0 0 - - - 0;
#X floatatom 581 278 5 0 0 0 - - - 0;
#X obj 435 252 pack f f;
#X msg 540 303 0;
#X obj 427 290 pack f f;
#X obj 435 418 moog_filter;
#X obj 435 446 vol_pan_module;
#X obj 435 474 dac~;
#X obj 432 328 pack f f;
#X obj 499 354 pack f f;
#X msg 505 303 0;
#X obj 696 253 pack f f f f f f;
#X obj 696 278 euclid;
#X obj 699 329 moses;
#X floatatom 775 306 3 0 0 0 - - - 0;
#X floatatom 777 279 5 0 0 0 - - - 0;
#X obj 631 253 pack f f;
#X msg 736 304 0;
#X obj 623 291 pack f f;
#X obj 631 419 moog_filter;
#X obj 631 447 vol_pan_module;
#X obj 631 475 dac~;
#X obj 628 329 pack f f;
#X obj 695 355 pack f f;
#X msg 701 304 0;
#X obj 890 255 pack f f f f f f;
#X obj 890 280 euclid;
#X obj 893 331 moses;
#X floatatom 969 308 3 0 0 0 - - - 0;
#X floatatom 971 281 5 0 0 0 - - - 0;
#X obj 825 255 pack f f;
#X msg 930 306 0;
#X obj 817 293 pack f f;
#X obj 825 421 moog_filter;
#X obj 825 449 vol_pan_module;
#X obj 825 477 dac~;
#X obj 822 331 pack f f;
#X obj 889 357 pack f f;
#X msg 895 306 0;
#X obj 1084 256 pack f f f f f f;
#X obj 1084 281 euclid;
#X obj 1087 332 moses;
#X floatatom 1163 309 3 0 0 0 - - - 0;
#X floatatom 1165 282 5 0 0 0 - - - 0;
#X obj 1019 256 pack f f;
#X msg 1124 307 0;
#X obj 1011 294 pack f f;
#X obj 1019 422 moog_filter;
#X obj 1019 450 vol_pan_module;
#X obj 1019 478 dac~;
#X obj 1016 332 pack f f;
#X obj 1083 358 pack f f;
#X msg 1089 307 0;
#X obj 1283 257 pack f f f f f f;
#X obj 1283 282 euclid;
#X obj 1286 333 moses;
#X floatatom 1362 310 3 0 0 0 - - - 0;
#X floatatom 1364 283 5 0 0 0 - - - 0;
#X obj 1218 257 pack f f;
#X msg 1323 308 0;
#X obj 1210 295 pack f f;
#X obj 1218 423 moog_filter;
#X obj 1218 451 vol_pan_module;
#X obj 1218 479 dac~;
#X obj 1215 333 pack f f;
#X obj 1282 359 pack f f;
#X msg 1288 308 0;
#X obj 232 352 808_kick;
#X obj 383 381 808_snare;
#X obj 612 381 808_hat;
#X obj 796 373 808_perc1;
#X obj 989 372 808_perc2;
#X obj 1172 370 808_tom_conga;
#X obj 299 375 808_kick;
#X obj 499 376 808_kick;
#X obj 695 377 808_kick;
#X obj 889 379 808_kick;
#X obj 1083 380 808_kick;
#X obj 1282 381 808_kick;
#X connect 0 0 32 0;
#X connect 1 0 32 0;
#X connect 1 0 36 0;
#X connect 3 0 33 0;
#X connect 3 2 33 0;
#X connect 4 0 34 0;
#X connect 5 0 31 0;
#X connect 5 1 17 0;
#X connect 5 2 16 2;
#X connect 5 3 16 3;
#X connect 5 3 21 0;
#X connect 5 4 20 0;
#X connect 5 5 11 3;
#X connect 5 6 11 2;
#X connect 5 7 11 1;
#X connect 5 8 22 0;
#X connect 5 9 22 1;
#X connect 5 10 28 1;
#X connect 5 10 29 1;
#X connect 5 11 24 0;
#X connect 5 12 24 1;
#X connect 5 13 11 5;
#X connect 5 14 38 3;
#X connect 5 15 38 2;
#X connect 5 16 38 1;
#X connect 5 17 43 0;
#X connect 5 18 43 1;
#X connect 5 19 50 1;
#X connect 5 19 49 1;
#X connect 5 20 45 0;
#X connect 5 21 45 1;
#X connect 5 22 38 5;
#X connect 5 23 52 3;
#X connect 5 24 52 2;
#X connect 5 25 52 1;
#X connect 5 26 57 0;
#X connect 5 27 57 1;
#X connect 5 28 63 1;
#X connect 5 28 64 1;
#X connect 5 29 59 0;
#X connect 5 30 59 1;
#X connect 5 31 52 5;
#X connect 5 32 66 3;
#X connect 5 33 66 2;
#X connect 5 34 66 1;
#X connect 5 35 71 0;
#X connect 5 36 71 1;
#X connect 5 37 78 1;
#X connect 5 37 77 1;
#X connect 5 38 73 0;
#X connect 5 39 73 1;
#X connect 5 40 66 5;
#X connect 5 41 80 3;
#X connect 5 42 80 2;
#X connect 5 43 80 1;
#X connect 5 44 85 0;
#X connect 5 45 85 1;
#X connect 5 46 91 1;
#X connect 5 46 92 1;
#X connect 5 47 87 0;
#X connect 5 48 87 1;
#X connect 5 49 80 5;
#X connect 5 50 94 3;
#X connect 5 51 94 2;
#X connect 5 52 94 1;
#X connect 5 53 99 0;
#X connect 5 54 99 1;
#X connect 5 55 105 1;
#X connect 5 55 106 1;
#X connect 5 56 101 0;
#X connect 5 57 101 1;
#X connect 5 58 94 5;
#X connect 6 0 32 0;
#X connect 7 0 16 4;
#X connect 7 0 23 0;
#X connect 7 0 44 0;
#X connect 7 0 58 0;
#X connect 7 0 72 0;
#X connect 7 0 86 0;
#X connect 7 0 100 0;
#X connect 8 0 16 0;
#X connect 9 0 8 0;
#X connect 9 0 7 0;
#X connect 10 0 11 0;
#X connect 10 0 38 0;
#X connect 10 0 52 0;
#X connect 10 0 66 0;
#X connect 10 0 80 0;
#X connect 10 0 94 0;
#X connect 11 0 12 0;
#X connect 12 0 13 0;
#X connect 12 0 37 0;
#X connect 13 0 28 0;
#X connect 13 1 29 0;
#X connect 14 0 10 0;
#X connect 14 0 18 0;
#X connect 14 1 15 0;
#X connect 16 0 14 0;
#X connect 17 0 8 1;
#X connect 17 0 16 1;
#X connect 19 0 30 0;
#X connect 20 0 13 1;
#X connect 21 0 11 4;
#X connect 22 0 26 1;
#X connect 23 0 13 1;
#X connect 24 0 25 1;
#X connect 25 0 26 0;
#X connect 26 0 27 0;
#X connect 26 1 27 1;
#X connect 28 0 108 0;
#X connect 29 0 114 0;
#X connect 30 0 9 0;
#X connect 31 0 19 0;
#X connect 32 0 2 0;
#X connect 32 0 3 0;
#X connect 33 0 4 0;
#X connect 34 0 5 0;
#X connect 35 0 31 0;
#X connect 36 0 35 0;
#X connect 37 0 13 0;
#X connect 38 0 39 0;
#X connect 39 0 40 0;
#X connect 39 0 51 0;
#X connect 40 0 49 0;
#X connect 40 1 50 0;
#X connect 41 0 40 1;
#X connect 42 0 38 4;
#X connect 43 0 47 1;
#X connect 44 0 40 1;
#X connect 45 0 46 1;
#X connect 46 0 47 0;
#X connect 47 0 48 0;
#X connect 47 1 48 1;
#X connect 49 0 109 0;
#X connect 50 0 115 0;
#X connect 51 0 40 0;
#X connect 52 0 53 0;
#X connect 53 0 54 0;
#X connect 53 0 65 0;
#X connect 54 0 63 0;
#X connect 54 1 64 0;
#X connect 55 0 54 1;
#X connect 56 0 52 4;
#X connect 57 0 61 1;
#X connect 58 0 54 1;
#X connect 59 0 60 1;
#X connect 60 0 61 0;
#X connect 61 0 62 0;
#X connect 61 1 62 1;
#X connect 63 0 110 0;
#X connect 64 0 116 0;
#X connect 65 0 54 0;
#X connect 66 0 67 0;
#X connect 67 0 68 0;
#X connect 67 0 79 0;
#X connect 68 0 77 0;
#X connect 68 1 78 0;
#X connect 69 0 68 1;
#X connect 70 0 66 4;
#X connect 71 0 75 1;
#X connect 72 0 68 1;
#X connect 73 0 74 1;
#X connect 74 0 75 0;
#X connect 75 0 76 0;
#X connect 75 1 76 1;
#X connect 77 0 111 0;
#X connect 78 0 117 0;
#X connect 79 0 68 0;
#X connect 80 0 81 0;
#X connect 81 0 82 0;
#X connect 81 0 93 0;
#X connect 82 0 91 0;
#X connect 82 1 92 0;
#X connect 83 0 82 1;
#X connect 84 0 80 4;
#X connect 85 0 89 1;
#X connect 86 0 82 1;
#X connect 87 0 88 1;
#X connect 88 0 89 0;
#X connect 89 0 90 0;
#X connect 89 1 90 1;
#X connect 91 0 112 0;
#X connect 92 0 118 0;
#X connect 93 0 82 0;
#X connect 94 0 95 0;
#X connect 95 0 96 0;
#X connect 95 0 107 0;
#X connect 96 0 105 0;
#X connect 96 1 106 0;
#X connect 97 0 96 1;
#X connect 98 0 94 4;
#X connect 99 0 103 1;
#X connect 100 0 96 1;
#X connect 101 0 102 1;
#X connect 102 0 103 0;
#X connect 103 0 104 0;
#X connect 103 1 104 1;
#X connect 105 0 113 0;
#X connect 106 0 119 0;
#X connect 107 0 96 0;
#X connect 108 0 25 0;
#X connect 109 0 46 0;
#X connect 110 0 60 0;
#X connect 111 0 74 0;
#X connect 112 0 88 0;
#X connect 113 0 102 0;
#X connect 114 0 25 0;
#X connect 115 0 46 0;
#X connect 116 0 60 0;
#X connect 117 0 74 0;
#X connect 118 0 88 0;
#X connect 119 0 102 0;
