#N canvas 18 25 1422 758 12;
#X obj 26 325 == 0;
#X obj 208 327 nbx 5 14 10 500 0 1 empty empty Tempo\ (BPM) 64 7 0 12 #fcfcfc #000000 #000000 156 256;
#X obj 75 315 metro;
#X obj 357 328 nbx 5 14 0 100 0 0 empty empty Swing\ (%) 64 7 0 12 #fcfcfc #000000 #000000 0 256;
#X obj 78 279 tgl 15 0 empty empty Play 17 7 0 10 #fcfcfc #000000 #000000 0 1;
#X floatatom 75 505 5 0 0 0 - - - 0;
#X obj 176 598 euclid;
#X floatatom 234 361 5 1 16 1 Total\ Steps - - 0;
#X floatatom 504 369 5 1 16 1 Channel\ steps - - 0;
#X floatatom 506 403 5 0 16 1 Hits - - 0;
#X floatatom 505 432 5 0 15 1 Offset - - 0;
#X floatatom 360 361 7 0 50 1 Randomness - - 0;
#X obj 176 570 pack f f f f f f;
#X obj 111 684 stdkick;
#X obj 220 805 dac~;
#X floatatom 655 368 5 1 16 1 Channel\ steps - - 0;
#X floatatom 657 402 5 0 16 1 Hits - - 0;
#X obj 400 568 pack f f f f f f;
#X floatatom 826 367 5 1 16 1 Channel\ steps - - 0;
#X floatatom 828 401 5 0 16 1 Hits - - 0;
#X floatatom 827 430 5 0 15 1 Offset - - 0;
#X obj 686 571 pack f f f f f f;
#X obj 400 603 euclid;
#X obj 688 606 euclid;
#X obj 403 705 stdsnare;
#X obj 697 696 stdhat;
#X floatatom 658 431 5 0 15 1 Offset - - 0;
#X obj 260 614 bng 40 250 50 0 empty empty SAMPLE\ SELECT 0 -10 0 12 #fcfcfc #000000 #000000;
#X obj 106 632 moses;
#X obj 21 756 + 1;
#X obj 166 649 0;
#X obj 204 654 1;
#X obj 555 615 bng 40 250 50 0 empty empty SAMPLE\ SELECT 0 -10 0 12 #fcfcfc #000000 #000000;
#X obj 401 633 moses;
#X obj 461 650 0;
#X obj 499 655 1;
#X obj 843 620 bng 40 250 50 0 empty empty SAMPLE\ SELECT 0 -10 0 12 #fcfcfc #000000 #000000;
#X obj 689 638 moses;
#X obj 749 655 0;
#X obj 787 660 1;
#X obj 78 391 pulse;
#X obj 168 438 bng 30 250 50 0 empty empty ETTAN 0 40 0 12 #fcfcfc #000000 #000000;
#X obj 78 360 pack b f f f f;
#X obj 131 281 expr 30000/$f1;
#X text 499 339 KICK;
#X text 652 334 SNARE;
#X text 822 335 HI-HAT;
#X text 275 299 GLOBAL CONTROLS;
#X obj 82 884 hsl 120 19 0 2 0 0 empty empty volume -2 -10 0 12 #fcfcfc #000000 #000000 0 1;
#X obj 82 843 hsl 120 19 0 1 0 0 empty empty pan -2 -10 0 12 #fcfcfc #000000 #000000 0 0;
#X msg 115 770 0.5;
#X msg 79 775 1;
#X obj 107 713 pack f f;
#X obj 412 891 hsl 120 19 0 2 0 0 empty empty volume -2 -10 0 12 #fcfcfc #000000 #000000 0 1;
#X obj 412 850 hsl 120 19 0 1 0 0 empty empty pan -2 -10 0 12 #fcfcfc #000000 #000000 0 0;
#X obj 402 730 pack f f;
#X obj 724 890 hsl 120 19 0 2 0 0 empty empty volume -2 -10 0 12 #fcfcfc #000000 #000000 0 1;
#X obj 724 849 hsl 120 19 0 1 0 0 empty empty pan -2 -10 0 12 #fcfcfc #000000 #000000 0 0;
#X obj 676 730 pack f f;
#X obj 116 437 bng 30 250 50 0 empty empty PULSEN 0 40 0 12 #fcfcfc #000000 #000000;
#X obj 223 848 hsl 162 19 20 15000 1 0 empty empty cut-off -2 -10 0 12 #fcfcfc #000000 #000000 0 1;
#X obj 224 912 hsl 162 19 0.01 4 0 0 empty empty resonant\ Q -2 -10 0 12 #fcfcfc #000000 #000000 0 1;
#X floatatom 221 874 5 0 0 0 - - - 0;
#X floatatom 218 937 5 0 0 0 - - - 0;
#X obj 273 748 pack f f;
#X obj 272 727 bng 19 250 50 0 empty empty empty 0 -10 0 12 #fcfcfc #000000 #000000;
#X text 27 723 pitch \, sample banks;
#X obj 498 796 dac~;
#X obj 559 742 pack f f;
#X obj 550 718 bng 19 250 50 0 empty empty empty 0 -10 0 12 #fcfcfc #000000 #000000;
#X obj 779 789 dac~;
#X obj 842 732 pack f f;
#X obj 831 711 bng 19 250 50 0 empty empty empty 0 -10 0 12 #fcfcfc #000000 #000000;
#X obj 541 848 hsl 162 19 20 15000 1 0 empty empty cut-off -2 -10 0 12 #fcfcfc #000000 #000000 0 1;
#X obj 542 912 hsl 162 19 0.01 4 0 0 empty empty resonant\ Q -2 -10 0 12 #fcfcfc #000000 #000000 0 1;
#X floatatom 539 874 5 0 0 0 - - - 0;
#X floatatom 536 937 5 0 0 0 - - - 0;
#X obj 863 850 hsl 162 19 20 15000 1 0 empty empty cut-off -2 -10 0 12 #fcfcfc #000000 #000000 0 1;
#X obj 864 914 hsl 162 19 0.01 4 0 0 empty empty resonant\ Q -2 -10 0 12 #fcfcfc #000000 #000000 0 1;
#X floatatom 861 876 5 0 0 0 - - - 0;
#X floatatom 858 939 5 0 0 0 - - - 0;
#X obj 214 776 vol_pan_module;
#X obj 492 767 vol_pan_module;
#X obj 773 760 vol_pan_module;
#X obj 186 685 custom_sample;
#X obj 481 686 custom_sample;
#X obj 769 684 custom_sample;
#X obj 749 734 moog_filter;
#X obj 472 741 moog_filter;
#X obj 179 749 moog_filter;
#X msg 116 796 15000;
#X obj 51 83 comport 0 9600;
#X msg 55 42 devices;
#X msg 117 42 open 1;
#X msg 181 43 close;
#X obj 51 111 print;
#X obj 212 84 sel 13 10;
#X obj 213 114 zl group 100;
#X obj 214 168 fromsymbol;
#X obj 213 141 list tosymbol;
#X obj 214 195 unpack f f f f f f f f f f f f f f f f f f f f f f f f f f f f f f f f f f f f f f f f f f f f f f f f f f f f f f f f f f, f 149;
#X connect 0 0 29 0;
#X connect 0 0 42 4;
#X connect 1 0 43 0;
#X connect 2 0 42 0;
#X connect 3 0 42 2;
#X connect 4 0 2 0;
#X connect 4 0 0 0;
#X connect 5 0 12 0;
#X connect 5 0 17 0;
#X connect 5 0 21 0;
#X connect 6 0 28 0;
#X connect 6 0 65 0;
#X connect 7 0 12 4;
#X connect 7 0 17 4;
#X connect 7 0 21 4;
#X connect 7 0 42 3;
#X connect 8 0 12 3;
#X connect 9 0 12 2;
#X connect 10 0 12 1;
#X connect 11 0 12 5;
#X connect 11 0 21 5;
#X connect 11 0 17 5;
#X connect 12 0 6 0;
#X connect 13 0 89 0;
#X connect 15 0 17 3;
#X connect 16 0 17 2;
#X connect 17 0 22 0;
#X connect 18 0 21 3;
#X connect 19 0 21 2;
#X connect 20 0 21 1;
#X connect 21 0 23 0;
#X connect 22 0 33 0;
#X connect 22 0 69 0;
#X connect 23 0 37 0;
#X connect 23 0 72 0;
#X connect 24 0 88 0;
#X connect 25 0 87 0;
#X connect 26 0 17 1;
#X connect 27 0 31 0;
#X connect 28 0 13 0;
#X connect 28 1 30 0;
#X connect 29 0 28 1;
#X connect 29 0 33 1;
#X connect 29 0 37 1;
#X connect 29 0 50 0;
#X connect 29 0 51 0;
#X connect 29 0 90 0;
#X connect 30 0 84 0;
#X connect 31 0 84 0;
#X connect 32 0 35 0;
#X connect 33 0 24 0;
#X connect 33 1 34 0;
#X connect 34 0 85 0;
#X connect 35 0 85 0;
#X connect 36 0 39 0;
#X connect 37 0 25 0;
#X connect 37 1 38 0;
#X connect 38 0 86 0;
#X connect 39 0 86 0;
#X connect 40 0 5 0;
#X connect 40 0 59 0;
#X connect 40 1 41 0;
#X connect 42 0 40 0;
#X connect 43 0 2 1;
#X connect 43 0 42 1;
#X connect 48 0 52 0;
#X connect 49 0 52 1;
#X connect 50 0 49 0;
#X connect 50 0 54 0;
#X connect 50 0 57 0;
#X connect 51 0 48 0;
#X connect 51 0 53 0;
#X connect 51 0 56 0;
#X connect 52 0 81 1;
#X connect 53 0 55 0;
#X connect 54 0 55 1;
#X connect 55 0 82 1;
#X connect 56 0 58 0;
#X connect 57 0 58 1;
#X connect 58 0 83 1;
#X connect 60 0 62 0;
#X connect 61 0 63 0;
#X connect 62 0 64 0;
#X connect 63 0 64 1;
#X connect 64 0 89 1;
#X connect 65 0 64 0;
#X connect 68 0 88 1;
#X connect 69 0 68 0;
#X connect 71 0 87 1;
#X connect 72 0 71 0;
#X connect 73 0 75 0;
#X connect 74 0 76 0;
#X connect 75 0 68 0;
#X connect 76 0 68 1;
#X connect 77 0 79 0;
#X connect 78 0 80 0;
#X connect 79 0 71 0;
#X connect 80 0 71 1;
#X connect 81 0 14 0;
#X connect 81 1 14 0;
#X connect 82 0 67 0;
#X connect 82 1 67 0;
#X connect 83 0 70 0;
#X connect 83 1 70 0;
#X connect 84 0 28 1;
#X connect 84 1 89 0;
#X connect 85 0 33 1;
#X connect 85 1 88 0;
#X connect 86 0 37 1;
#X connect 86 1 87 0;
#X connect 87 0 83 0;
#X connect 88 0 82 0;
#X connect 89 0 81 0;
#X connect 90 0 60 0;
#X connect 90 0 73 0;
#X connect 90 0 77 0;
#X connect 91 0 95 0;
#X connect 91 0 96 0;
#X connect 92 0 91 0;
#X connect 93 0 91 0;
#X connect 94 0 91 0;
#X connect 96 0 97 0;
#X connect 96 2 97 0;
#X connect 97 0 99 0;
#X connect 98 0 100 0;
#X connect 99 0 98 0;
