#N canvas 0 30 1440 742 12;
#X msg 36 117 devices;
#X msg 162 118 close;
#X obj 32 186 print;
#X obj 212 84 sel 13 10;
#X obj 213 141 list tosymbol;
#X msg 98 117 open 5;
#X obj 56 414 == 0;
#X obj 48 290 metro;
#X obj 94 267 tgl 15 0 empty empty Play 17 7 0 10 #fcfcfc #000000 #000000 0 1;
#X floatatom 53 382 5 0 0 0 - - - 0;
#X obj 300 276 euclid;
#X obj 303 327 moses;
#X obj 53 351 pulse;
#X obj 183 457 bng 30 250 50 0 empty empty ETTAN 0 40 0 12 #fcfcfc #000000 #000000;
#X obj 53 325 pack b f f f f;
#X obj 94 291 expr 30000/$f1;
#X obj 121 460 bng 30 250 50 0 empty empty PULSEN 0 40 0 12 #fcfcfc #000000 #000000;
#X obj 94 219 change;
#X floatatom 379 304 3 0 0 0 - - - 0;
#X floatatom 381 277 5 0 0 0 - - - 0;
#X msg 340 302 0;
#X obj 235 417 moog_filter;
#X obj 235 445 vol_pan_module;
#X obj 235 473 dac~;
#X obj 232 327 pack f f;
#X obj 299 353 pack f f;
#X obj 94 243 select 1;
#X floatatom 165 196 5 0 0 0 - - - 0;
#X obj 32 158 comport 0 9600;
#X floatatom 164 168 5 0 0 0 - - - 0;
#X obj 169 143 bng 19 250 50 0 empty empty empty 0 -10 0 12 #fcfcfc #000000 #000000;
#X msg 305 302 0;
#X obj 538 308 euclid;
#X obj 541 359 moses;
#X floatatom 617 336 3 0 0 0 - - - 0;
#X floatatom 619 309 5 0 0 0 - - - 0;
#X msg 578 334 0;
#X obj 473 449 moog_filter;
#X obj 473 477 vol_pan_module;
#X obj 473 505 dac~;
#X obj 470 359 pack f f;
#X obj 537 385 pack f f;
#X msg 543 334 0;
#X obj 747 294 euclid;
#X obj 750 345 moses;
#X floatatom 826 322 3 0 0 0 - - - 0;
#X floatatom 828 295 5 0 0 0 - - - 0;
#X msg 787 320 0;
#X obj 682 435 moog_filter;
#X obj 682 463 vol_pan_module;
#X obj 682 491 dac~;
#X obj 679 345 pack f f;
#X obj 766 372 pack f f;
#X msg 752 320 0;
#X obj 978 290 euclid;
#X obj 981 341 moses;
#X floatatom 1057 318 3 0 0 0 - - - 0;
#X floatatom 1059 291 5 0 0 0 - - - 0;
#X msg 1018 316 0;
#X obj 913 431 moog_filter;
#X obj 913 459 vol_pan_module;
#X obj 913 487 dac~;
#X obj 910 341 pack f f;
#X obj 1003 365 pack f f;
#X msg 983 316 0;
#X obj 1202 287 euclid;
#X obj 1205 338 moses;
#X floatatom 1281 315 3 0 0 0 - - - 0;
#X floatatom 1283 288 5 0 0 0 - - - 0;
#X msg 1242 313 0;
#X obj 1137 428 moog_filter;
#X obj 1138 455 vol_pan_module;
#X obj 1137 484 dac~;
#X obj 1134 338 pack f f;
#X obj 1228 365 pack f f;
#X msg 1207 313 0;
#X obj 1451 287 euclid;
#X obj 1454 338 moses;
#X floatatom 1530 315 3 0 0 0 - - - 0;
#X floatatom 1532 288 5 0 0 0 - - - 0;
#X msg 1491 313 0;
#X obj 1417 429 moog_filter;
#X obj 1417 457 vol_pan_module;
#X obj 1417 485 dac~;
#X obj 1372 329 pack f f;
#X obj 1502 364 pack f f;
#X msg 1456 313 0;
#X obj 154 353 ./trigger/rock_kick;
#X obj 293 382 ./trigger/808_kick;
#X obj 351 417 ./trigger/rock_snare;
#X obj 507 411 ./trigger/808_snare;
#X obj 628 374 ./trigger/rock_hat;
#X obj 740 400 ./trigger/808_hat;
#X obj 849 365 ./trigger/rock_perc1;
#X obj 946 396 ./trigger/808_perc1;
#X obj 1073 364 ./trigger/rock_perc2;
#X obj 1198 396 ./trigger/808_perc2;
#X obj 1317 363 ./trigger/rock_tom_conga;
#X obj 1416 393 ./trigger/808_tom_conga;
#X obj 213 114 zl group 200;
#X obj 214 168 fromsymbol;
#X obj 312 252 pack f f f f f f f;
#X obj 214 195 unpack f f f f f f f f f f f f f f f f f f f f f f f f f f f f f f f f f f f f f f f f f f f f f f f f f f f f f f f f f f f f, f 175;
#X obj 538 283 pack f f f f f f f;
#X obj 747 269 pack f f f f f f f;
#X obj 978 265 pack f f f f f f f;
#X obj 1202 262 pack f f f f f f f;
#X obj 1451 262 pack f f f f f f f;
#X obj 891 302 pack f f f;
#X obj 1129 300 pack f f f;
#X obj 1372 296 pack f f f;
#X obj 664 306 pack f f f;
#X obj 462 322 pack f f f;
#X obj 215 289 pack f f f;
#X obj 222 251 pack f f f;
#X obj 452 284 pack f f f;
#X obj 664 270 pack f f f;
#X obj 892 266 pack f f f;
#X obj 1134 259 pack f f f;
#X obj 1378 265 pack f f f;
#X connect 0 0 28 0;
#X connect 1 0 28 0;
#X connect 1 0 30 0;
#X connect 3 0 99 0;
#X connect 3 2 99 0;
#X connect 4 0 100 0;
#X connect 5 0 28 0;
#X connect 6 0 14 4;
#X connect 6 0 20 0;
#X connect 6 0 36 0;
#X connect 6 0 47 0;
#X connect 6 0 58 0;
#X connect 6 0 69 0;
#X connect 6 0 80 0;
#X connect 7 0 14 0;
#X connect 8 0 7 0;
#X connect 8 0 6 0;
#X connect 9 0 101 0;
#X connect 9 0 103 0;
#X connect 9 0 104 0;
#X connect 9 0 105 0;
#X connect 9 0 106 0;
#X connect 9 0 107 0;
#X connect 10 0 11 0;
#X connect 10 0 31 0;
#X connect 11 0 24 0;
#X connect 11 1 25 0;
#X connect 12 0 9 0;
#X connect 12 0 16 0;
#X connect 12 1 13 0;
#X connect 14 0 12 0;
#X connect 15 0 7 1;
#X connect 15 0 14 1;
#X connect 17 0 26 0;
#X connect 18 0 11 1;
#X connect 19 0 101 4;
#X connect 20 0 11 1;
#X connect 21 0 22 0;
#X connect 22 0 23 0;
#X connect 22 1 23 0;
#X connect 24 0 87 0;
#X connect 25 0 88 0;
#X connect 26 0 8 0;
#X connect 27 0 17 0;
#X connect 28 0 2 0;
#X connect 28 0 3 0;
#X connect 29 0 27 0;
#X connect 30 0 29 0;
#X connect 31 0 11 0;
#X connect 32 0 33 0;
#X connect 32 0 42 0;
#X connect 33 0 40 0;
#X connect 33 1 41 0;
#X connect 34 0 33 1;
#X connect 35 0 103 4;
#X connect 36 0 33 1;
#X connect 37 0 38 0;
#X connect 38 0 39 0;
#X connect 38 1 39 0;
#X connect 40 0 89 0;
#X connect 41 0 90 0;
#X connect 42 0 33 0;
#X connect 43 0 44 0;
#X connect 43 0 53 0;
#X connect 44 0 51 0;
#X connect 44 1 52 0;
#X connect 45 0 44 1;
#X connect 46 0 104 4;
#X connect 47 0 44 1;
#X connect 48 0 49 0;
#X connect 49 0 50 0;
#X connect 49 1 50 0;
#X connect 51 0 91 0;
#X connect 52 0 92 0;
#X connect 53 0 44 0;
#X connect 54 0 55 0;
#X connect 54 0 64 0;
#X connect 55 0 62 0;
#X connect 55 1 63 0;
#X connect 56 0 55 1;
#X connect 57 0 105 4;
#X connect 58 0 55 1;
#X connect 59 0 60 0;
#X connect 60 0 61 0;
#X connect 60 1 61 0;
#X connect 62 0 93 0;
#X connect 63 0 94 0;
#X connect 64 0 55 0;
#X connect 65 0 66 0;
#X connect 65 0 75 0;
#X connect 66 0 73 0;
#X connect 66 1 74 0;
#X connect 67 0 66 1;
#X connect 68 0 106 4;
#X connect 69 0 66 1;
#X connect 70 0 71 0;
#X connect 71 0 72 0;
#X connect 71 1 72 0;
#X connect 73 0 95 0;
#X connect 74 0 96 0;
#X connect 75 0 66 0;
#X connect 76 0 77 0;
#X connect 76 0 86 0;
#X connect 77 0 84 0;
#X connect 77 1 85 0;
#X connect 78 0 77 1;
#X connect 79 0 107 4;
#X connect 80 0 77 1;
#X connect 81 0 82 0;
#X connect 82 0 83 0;
#X connect 82 1 83 0;
#X connect 84 0 97 0;
#X connect 85 0 98 0;
#X connect 86 0 77 0;
#X connect 87 0 21 0;
#X connect 88 0 21 0;
#X connect 89 0 37 0;
#X connect 90 0 37 0;
#X connect 91 0 48 0;
#X connect 92 0 48 0;
#X connect 93 0 59 0;
#X connect 94 0 59 0;
#X connect 95 0 70 0;
#X connect 96 0 70 0;
#X connect 97 0 81 0;
#X connect 98 0 81 0;
#X connect 99 0 4 0;
#X connect 100 0 102 0;
#X connect 101 0 10 0;
#X connect 102 0 27 0;
#X connect 102 1 15 0;
#X connect 102 2 14 2;
#X connect 102 3 14 3;
#X connect 102 3 19 0;
#X connect 102 4 18 0;
#X connect 102 5 101 3;
#X connect 102 6 101 2;
#X connect 102 7 101 1;
#X connect 102 8 114 0;
#X connect 102 9 114 1;
#X connect 102 10 24 1;
#X connect 102 10 25 1;
#X connect 102 11 113 0;
#X connect 102 12 113 1;
#X connect 102 13 101 5;
#X connect 102 14 103 3;
#X connect 102 15 103 2;
#X connect 102 16 103 1;
#X connect 102 17 115 0;
#X connect 102 18 115 1;
#X connect 102 19 41 1;
#X connect 102 19 40 1;
#X connect 102 20 112 0;
#X connect 102 21 112 1;
#X connect 102 22 103 5;
#X connect 102 23 104 3;
#X connect 102 24 104 2;
#X connect 102 25 104 1;
#X connect 102 26 116 0;
#X connect 102 27 116 1;
#X connect 102 28 51 1;
#X connect 102 28 52 1;
#X connect 102 29 111 0;
#X connect 102 30 111 1;
#X connect 102 31 104 5;
#X connect 102 32 105 3;
#X connect 102 33 105 2;
#X connect 102 34 105 1;
#X connect 102 35 117 0;
#X connect 102 36 117 1;
#X connect 102 37 63 1;
#X connect 102 37 62 1;
#X connect 102 38 108 0;
#X connect 102 39 108 1;
#X connect 102 40 105 5;
#X connect 102 41 106 3;
#X connect 102 42 106 2;
#X connect 102 43 106 1;
#X connect 102 44 118 0;
#X connect 102 45 118 1;
#X connect 102 46 73 1;
#X connect 102 46 74 1;
#X connect 102 47 109 0;
#X connect 102 48 109 1;
#X connect 102 49 106 5;
#X connect 102 50 107 3;
#X connect 102 51 107 2;
#X connect 102 52 107 1;
#X connect 102 53 119 0;
#X connect 102 54 119 1;
#X connect 102 55 84 1;
#X connect 102 55 85 1;
#X connect 102 56 110 0;
#X connect 102 57 110 1;
#X connect 102 58 107 5;
#X connect 102 59 101 6;
#X connect 102 59 103 6;
#X connect 102 59 104 6;
#X connect 102 59 105 6;
#X connect 102 59 106 6;
#X connect 102 59 107 6;
#X connect 102 59 108 2;
#X connect 102 59 109 2;
#X connect 102 59 110 2;
#X connect 102 59 111 2;
#X connect 102 59 112 2;
#X connect 102 59 113 2;
#X connect 102 59 114 2;
#X connect 102 59 115 2;
#X connect 102 59 116 0;
#X connect 102 59 116 2;
#X connect 102 59 117 2;
#X connect 102 59 118 2;
#X connect 102 59 119 2;
#X connect 103 0 32 0;
#X connect 104 0 43 0;
#X connect 105 0 54 0;
#X connect 106 0 65 0;
#X connect 107 0 76 0;
#X connect 108 0 59 1;
#X connect 109 0 70 1;
#X connect 110 0 81 1;
#X connect 111 0 48 1;
#X connect 112 0 37 1;
#X connect 113 0 21 1;
#X connect 114 0 22 1;
#X connect 115 0 38 1;
#X connect 116 0 49 1;
#X connect 117 0 60 1;
#X connect 118 0 71 1;
#X connect 119 0 82 1;
