#N canvas 0 148 1696 950 12;
#X msg 36 117 devices;
#X msg 162 118 close;
#X obj 32 186 print;
#X obj 212 84 sel 13 10;
#X obj 56 414 == 0;
#X obj 48 290 metro;
#X obj 94 267 tgl 15 0 empty empty Play 17 7 0 10 #fcfcfc #000000 #000000 0 1;
#X floatatom 53 382 5 0 0 0 - - - 0;
#X obj 300 276 euclid;
#X obj 303 327 moses;
#X obj 53 351 pulse;
#X obj 183 457 bng 30 250 50 0 empty empty ETTAN 0 40 0 12 #fcfcfc #000000 #000000;
#X obj 53 325 pack b f f f f;
#X obj 94 291 expr 30000/$f1;
#X obj 121 460 bng 30 250 50 0 empty empty PULSEN 0 40 0 12 #fcfcfc #000000 #000000;
#X floatatom 379 304 3 0 0 0 - - - 0;
#X floatatom 381 277 5 0 0 0 - - - 0;
#X msg 340 302 0;
#X obj 235 417 moog_filter;
#X obj 235 445 vol_pan_module;
#X obj 235 473 dac~;
#X obj 232 327 pack f f;
#X obj 299 353 pack f f;
#X floatatom 165 196 5 0 0 0 - - - 0;
#X obj 32 158 comport 0 9600;
#X floatatom 164 168 5 0 0 0 - - - 0;
#X obj 169 143 bng 19 250 50 0 empty empty empty 0 -10 0 12 #fcfcfc #000000 #000000;
#X msg 305 302 0;
#X obj 538 308 euclid;
#X obj 541 359 moses;
#X floatatom 617 336 3 0 0 0 - - - 0;
#X floatatom 619 309 5 0 0 0 - - - 0;
#X msg 578 334 0;
#X obj 473 449 moog_filter;
#X obj 473 477 vol_pan_module;
#X obj 473 505 dac~;
#X obj 470 359 pack f f;
#X obj 537 385 pack f f;
#X msg 543 334 0;
#X obj 747 294 euclid;
#X obj 750 345 moses;
#X floatatom 826 322 3 0 0 0 - - - 0;
#X floatatom 828 295 5 0 0 0 - - - 0;
#X msg 787 320 0;
#X obj 682 435 moog_filter;
#X obj 682 463 vol_pan_module;
#X obj 682 491 dac~;
#X obj 679 345 pack f f;
#X obj 766 372 pack f f;
#X msg 752 320 0;
#X obj 978 290 euclid;
#X obj 981 341 moses;
#X floatatom 1057 318 3 0 0 0 - - - 0;
#X floatatom 1059 291 5 0 0 0 - - - 0;
#X msg 1018 316 0;
#X obj 913 431 moog_filter;
#X obj 913 459 vol_pan_module;
#X obj 913 487 dac~;
#X obj 910 341 pack f f;
#X obj 1003 365 pack f f;
#X msg 983 316 0;
#X obj 1202 287 euclid;
#X obj 1205 338 moses;
#X floatatom 1281 315 3 0 0 0 - - - 0;
#X floatatom 1283 288 5 0 0 0 - - - 0;
#X msg 1242 313 0;
#X obj 1137 428 moog_filter;
#X obj 1138 455 vol_pan_module;
#X obj 1137 484 dac~;
#X obj 1134 338 pack f f;
#X obj 1228 365 pack f f;
#X msg 1207 313 0;
#X obj 1451 287 euclid;
#X obj 1454 338 moses;
#X floatatom 1530 315 3 0 0 0 - - - 0;
#X floatatom 1532 288 5 0 0 0 - - - 0;
#X msg 1491 313 0;
#X obj 1417 429 moog_filter;
#X obj 1417 457 vol_pan_module;
#X obj 1417 485 dac~;
#X obj 1372 329 pack f f;
#X obj 1502 364 pack f f;
#X msg 1456 313 0;
#X obj 154 353 ./trigger/rock_kick;
#X obj 293 382 ./trigger/808_kick;
#X obj 351 417 ./trigger/rock_snare;
#X obj 507 411 ./trigger/808_snare;
#X obj 628 374 ./trigger/rock_hat;
#X obj 740 400 ./trigger/808_hat;
#X obj 849 365 ./trigger/rock_perc1;
#X obj 946 396 ./trigger/808_perc1;
#X obj 1073 364 ./trigger/rock_perc2;
#X obj 1198 396 ./trigger/808_perc2;
#X obj 1317 363 ./trigger/rock_tom_conga;
#X obj 1416 393 ./trigger/808_tom_conga;
#X obj 312 252 pack f f f f f f f;
#X obj 250 210 unpack f f f f f f f f f f f f f f f f f f f f f f f f f f f f f f f f f f f f f f f f f f f f f f f f f f f f f f f f f f f f, f 175;
#X obj 524 267 pack f f f f f f f;
#X obj 747 269 pack f f f f f f f;
#X obj 978 265 pack f f f f f f f;
#X obj 1202 262 pack f f f f f f f;
#X obj 1451 262 pack f f f f f f f;
#X obj 891 302 pack f f f;
#X obj 1129 300 pack f f f;
#X obj 1372 296 pack f f f;
#X obj 664 306 pack f f f;
#X obj 444 323 pack f f f;
#X obj 211 288 pack f f f;
#X obj 222 251 pack f f f;
#X obj 444 285 pack f f f;
#X obj 666 270 pack f f f;
#X obj 892 266 pack f f f;
#X obj 1134 259 pack f f f;
#X obj 1365 238 pack f f f;
#X obj 119 224 == 1;
#X obj 161 615 list prepend send;
#X obj 159 640 list trim;
#X obj 168 677 netsend -u -b;
#X obj 158 704 tgl 19 0 empty empty empty 0 -10 0 12 #fcfcfc #000000 #000000 0 1;
#X obj 160 222 s bpm;
#X obj 159 537 r bpm;
#X obj 346 561 oscparse;
#X obj 346 589 list trim;
#X floatatom 1501 67 5 0 0 0 - - - 0;
#X obj 1510 155 +;
#X obj 1520 90 r chaos;
#X obj 286 681 loadbang;
#X floatatom 1553 161 5 0 0 0 - - - 0;
#X floatatom 88 555 5 0 0 0 - - - 0;
#X obj 349 615 route value;
#X obj 346 535 netreceive -u -b 7000;
#X floatatom 448 565 5 0 0 0 - - - 0;
#X obj 448 626 s chaos;
#X obj 448 596 abs;
#X obj 213 141 list tosymbol;
#X msg 98 117 open 4;
#X obj 388 112 s bpm;
#X msg 202 715 connect 130.229.130.41 7000;
#X obj 1475 126 / 100;
#X obj 213 114 zl group 200;
#X obj 214 168 fromsymbol;
#X msg 297 827 disconnect;
#X obj 176 564 f;
#X obj 161 589 oscformat /value;
#X connect 0 0 24 0;
#X connect 1 0 24 0;
#X connect 1 0 26 0;
#X connect 3 0 139 0;
#X connect 3 2 139 0;
#X connect 4 0 12 4;
#X connect 4 0 17 0;
#X connect 4 0 32 0;
#X connect 4 0 43 0;
#X connect 4 0 54 0;
#X connect 4 0 65 0;
#X connect 4 0 76 0;
#X connect 5 0 12 0;
#X connect 6 0 5 0;
#X connect 6 0 4 0;
#X connect 7 0 95 0;
#X connect 7 0 97 0;
#X connect 7 0 98 0;
#X connect 7 0 99 0;
#X connect 7 0 100 0;
#X connect 7 0 101 0;
#X connect 8 0 9 0;
#X connect 8 0 27 0;
#X connect 9 0 21 0;
#X connect 9 1 22 0;
#X connect 10 0 7 0;
#X connect 10 0 14 0;
#X connect 10 1 11 0;
#X connect 12 0 10 0;
#X connect 13 0 5 1;
#X connect 13 0 12 1;
#X connect 15 0 9 1;
#X connect 16 0 95 4;
#X connect 17 0 9 1;
#X connect 18 0 19 0;
#X connect 19 0 20 0;
#X connect 19 1 20 0;
#X connect 21 0 83 0;
#X connect 22 0 84 0;
#X connect 23 0 114 0;
#X connect 24 0 2 0;
#X connect 24 0 3 0;
#X connect 25 0 23 0;
#X connect 26 0 25 0;
#X connect 27 0 9 0;
#X connect 28 0 29 0;
#X connect 28 0 38 0;
#X connect 29 0 36 0;
#X connect 29 1 37 0;
#X connect 30 0 29 1;
#X connect 31 0 97 4;
#X connect 32 0 29 1;
#X connect 33 0 34 0;
#X connect 34 0 35 0;
#X connect 34 1 35 0;
#X connect 36 0 85 0;
#X connect 37 0 86 0;
#X connect 38 0 29 0;
#X connect 39 0 40 0;
#X connect 39 0 49 0;
#X connect 40 0 47 0;
#X connect 40 1 48 0;
#X connect 41 0 40 1;
#X connect 42 0 98 4;
#X connect 43 0 40 1;
#X connect 44 0 45 0;
#X connect 45 0 46 0;
#X connect 45 1 46 0;
#X connect 47 0 87 0;
#X connect 48 0 88 0;
#X connect 49 0 40 0;
#X connect 50 0 51 0;
#X connect 50 0 60 0;
#X connect 51 0 58 0;
#X connect 51 1 59 0;
#X connect 52 0 51 1;
#X connect 53 0 99 4;
#X connect 54 0 51 1;
#X connect 55 0 56 0;
#X connect 56 0 57 0;
#X connect 56 1 57 0;
#X connect 58 0 89 0;
#X connect 59 0 90 0;
#X connect 60 0 51 0;
#X connect 61 0 62 0;
#X connect 61 0 71 0;
#X connect 62 0 69 0;
#X connect 62 1 70 0;
#X connect 63 0 62 1;
#X connect 64 0 100 4;
#X connect 65 0 62 1;
#X connect 66 0 67 0;
#X connect 67 0 68 0;
#X connect 67 1 68 0;
#X connect 69 0 91 0;
#X connect 70 0 92 0;
#X connect 71 0 62 0;
#X connect 72 0 73 0;
#X connect 72 0 82 0;
#X connect 73 0 80 0;
#X connect 73 1 81 0;
#X connect 74 0 73 1;
#X connect 75 0 101 4;
#X connect 76 0 73 1;
#X connect 77 0 78 0;
#X connect 78 0 79 0;
#X connect 78 1 79 0;
#X connect 80 0 93 0;
#X connect 81 0 94 0;
#X connect 82 0 73 0;
#X connect 83 0 18 0;
#X connect 84 0 18 0;
#X connect 85 0 33 0;
#X connect 86 0 33 0;
#X connect 87 0 44 0;
#X connect 88 0 44 0;
#X connect 89 0 55 0;
#X connect 90 0 55 0;
#X connect 91 0 66 0;
#X connect 92 0 66 0;
#X connect 93 0 77 0;
#X connect 94 0 77 0;
#X connect 95 0 8 0;
#X connect 96 0 23 0;
#X connect 96 1 13 0;
#X connect 96 1 136 0;
#X connect 96 2 12 2;
#X connect 96 2 119 0;
#X connect 96 3 12 3;
#X connect 96 3 16 0;
#X connect 96 3 31 0;
#X connect 96 3 53 0;
#X connect 96 3 42 0;
#X connect 96 3 64 0;
#X connect 96 3 75 0;
#X connect 96 4 15 0;
#X connect 96 5 95 3;
#X connect 96 6 95 2;
#X connect 96 7 95 1;
#X connect 96 8 108 0;
#X connect 96 9 108 1;
#X connect 96 10 21 1;
#X connect 96 10 22 1;
#X connect 96 11 107 0;
#X connect 96 12 107 1;
#X connect 96 13 95 5;
#X connect 96 14 97 3;
#X connect 96 15 97 2;
#X connect 96 16 97 1;
#X connect 96 17 109 0;
#X connect 96 18 109 1;
#X connect 96 19 37 1;
#X connect 96 19 36 1;
#X connect 96 20 106 0;
#X connect 96 21 106 1;
#X connect 96 22 97 5;
#X connect 96 23 98 3;
#X connect 96 24 98 2;
#X connect 96 25 98 1;
#X connect 96 26 110 0;
#X connect 96 27 110 1;
#X connect 96 28 47 1;
#X connect 96 28 48 1;
#X connect 96 29 105 0;
#X connect 96 30 105 1;
#X connect 96 31 98 5;
#X connect 96 32 99 3;
#X connect 96 33 99 2;
#X connect 96 34 99 1;
#X connect 96 35 111 0;
#X connect 96 36 111 1;
#X connect 96 37 59 1;
#X connect 96 37 58 1;
#X connect 96 38 102 0;
#X connect 96 39 102 1;
#X connect 96 40 99 5;
#X connect 96 41 100 3;
#X connect 96 42 100 2;
#X connect 96 43 100 1;
#X connect 96 44 112 0;
#X connect 96 45 112 1;
#X connect 96 46 69 1;
#X connect 96 46 70 1;
#X connect 96 47 103 0;
#X connect 96 48 103 1;
#X connect 96 49 100 5;
#X connect 96 50 101 3;
#X connect 96 51 101 2;
#X connect 96 52 101 1;
#X connect 96 53 113 0;
#X connect 96 54 113 1;
#X connect 96 55 80 1;
#X connect 96 55 81 1;
#X connect 96 56 104 0;
#X connect 96 57 104 1;
#X connect 96 58 101 5;
#X connect 96 59 123 0;
#X connect 97 0 28 0;
#X connect 98 0 39 0;
#X connect 99 0 50 0;
#X connect 100 0 61 0;
#X connect 101 0 72 0;
#X connect 102 0 55 1;
#X connect 103 0 66 1;
#X connect 104 0 77 1;
#X connect 105 0 44 1;
#X connect 106 0 33 1;
#X connect 107 0 18 1;
#X connect 108 0 19 1;
#X connect 109 0 34 1;
#X connect 110 0 45 1;
#X connect 111 0 56 1;
#X connect 112 0 67 1;
#X connect 113 0 78 1;
#X connect 114 0 6 0;
#X connect 115 0 116 0;
#X connect 116 0 117 0;
#X connect 117 0 118 0;
#X connect 120 0 128 0;
#X connect 120 0 142 0;
#X connect 121 0 122 0;
#X connect 122 0 129 0;
#X connect 123 0 138 0;
#X connect 124 0 101 6;
#X connect 124 0 113 2;
#X connect 124 0 104 2;
#X connect 124 0 100 6;
#X connect 124 0 112 2;
#X connect 124 0 103 2;
#X connect 124 0 99 6;
#X connect 124 0 111 2;
#X connect 124 0 102 2;
#X connect 124 0 95 6;
#X connect 124 0 108 2;
#X connect 124 0 107 2;
#X connect 124 0 98 6;
#X connect 124 0 110 2;
#X connect 124 0 105 2;
#X connect 124 0 97 6;
#X connect 124 0 106 2;
#X connect 124 0 109 2;
#X connect 125 0 124 1;
#X connect 125 0 127 0;
#X connect 126 0 137 0;
#X connect 129 0 131 0;
#X connect 130 0 121 0;
#X connect 131 0 133 0;
#X connect 133 0 132 0;
#X connect 134 0 140 0;
#X connect 135 0 24 0;
#X connect 137 0 117 0;
#X connect 138 0 124 0;
#X connect 139 0 134 0;
#X connect 140 0 96 0;
#X connect 141 0 117 0;
#X connect 142 0 143 0;
#X connect 143 0 115 0;
