#N canvas 1046 224 394 376 12;
#X obj 101 248 bob~, f 24;
#X obj 183 176 line~;
#X text 159 118 Hz;
#X obj 183 145 pack f 50;
#X floatatom 183 118 8 0 0 0 - - - 0;
#X obj 101 188 r \$0-set;
#X floatatom 266 168 5 0 4 0 - - - 0;
#X obj 266 197 sig~;
#X obj 28 186 inlet~;
#X obj 270 9 inlet;
#X obj 99 290 outlet~;
#X obj 267 42 unpack f f f;
#X obj 175 86 *;
#X obj 174 54 abs;
#X obj 173 30 -1;
#X connect 0 0 10 0;
#X connect 1 0 0 1;
#X connect 3 0 1 0;
#X connect 4 0 3 0;
#X connect 5 0 0 0;
#X connect 6 0 7 0;
#X connect 7 0 0 2;
#X connect 8 0 0 0;
#X connect 9 0 11 0;
#X connect 11 0 12 0;
#X connect 11 1 6 0;
#X connect 11 2 14 0;
#X connect 12 0 4 0;
#X connect 13 0 12 1;
#X connect 14 0 13 0;
