#N canvas 584 220 592 376 12;
#X obj 101 248 bob~, f 24;
#X obj 183 194 line~;
#X text 159 136 Hz;
#X obj 183 163 pack f 50;
#X floatatom 183 136 8 0 0 0 - - - 0;
#X obj 101 188 r \$0-set;
#X floatatom 266 168 5 0 4 0 - - - 0;
#X obj 266 197 sig~;
#X obj 28 186 inlet~;
#X obj 270 9 inlet;
#X obj 99 290 outlet~;
#X obj 267 42 unpack f f f;
#X floatatom 343 105 5 0 0 0 - - - 0;
#X obj 341 162 random;
#X obj 341 135 t b f;
#X floatatom 356 242 5 0 0 0 - - - 0;
#X obj 354 299 random;
#X obj 354 272 t b f;
#X floatatom 183 50 5 0 0 0 - - - 0;
#X obj 184 82 -;
#X obj 360 211 * 4;
#X floatatom 264 87 5 0 0 0 - - - 0;
#X obj 264 112 +;
#X obj 287 66 / 250;
#X obj 340 76 * 7500;
#X obj 263 143 clip 0 4;
#X obj 151 109 clip 0 15000;
#X connect 0 0 10 0;
#X connect 1 0 0 1;
#X connect 3 0 1 0;
#X connect 4 0 3 0;
#X connect 5 0 0 0;
#X connect 6 0 7 0;
#X connect 7 0 0 2;
#X connect 8 0 0 0;
#X connect 9 0 11 0;
#X connect 11 0 18 0;
#X connect 11 1 23 0;
#X connect 11 2 20 0;
#X connect 11 2 24 0;
#X connect 12 0 14 0;
#X connect 13 0 19 1;
#X connect 14 0 13 0;
#X connect 14 1 13 1;
#X connect 15 0 17 0;
#X connect 16 0 22 1;
#X connect 17 0 16 0;
#X connect 17 1 16 1;
#X connect 18 0 19 0;
#X connect 19 0 26 0;
#X connect 20 0 15 0;
#X connect 21 0 22 0;
#X connect 22 0 25 0;
#X connect 23 0 21 0;
#X connect 24 0 12 0;
#X connect 25 0 6 0;
#X connect 26 0 4 0;
