#N canvas 358 256 450 300 12;
#X obj 42 30 inlet~;
#X obj 185 -3 inlet;
#X obj 42 195 *~;
#X obj 40 238 outlet~;
#X floatatom 184 67 5 0 0 0 - - - 0;
#X msg 60 118 \$1 10;
#X obj 60 142 line~;
#X obj 61 170 cos~;
#X obj 188 147 + 0.75;
#X obj 179 271 outlet~;
#X msg 188 173 \$1 10;
#X obj 188 197 line~;
#X obj 190 221 cos~;
#X obj 179 246 *~;
#X obj 186 20 unpack f f;
#X obj 190 95 *;
#X floatatom 322 48 5 0 0 0 - - - 0;
#X obj 320 105 random;
#X obj 320 78 t b f;
#X obj 320 133 / 100;
#X obj 190 121 / 2;
#X obj 184 43 / 2000;
#X obj 322 20 * 100;
#X obj 320 163 + 1;
#X connect 0 0 2 0;
#X connect 0 0 13 0;
#X connect 1 0 14 0;
#X connect 2 0 3 0;
#X connect 4 0 15 0;
#X connect 5 0 6 0;
#X connect 6 0 7 0;
#X connect 7 0 2 1;
#X connect 8 0 10 0;
#X connect 10 0 11 0;
#X connect 11 0 12 0;
#X connect 12 0 13 1;
#X connect 13 0 9 0;
#X connect 14 0 21 0;
#X connect 14 1 22 0;
#X connect 15 0 20 0;
#X connect 16 0 18 0;
#X connect 17 0 19 0;
#X connect 18 0 17 0;
#X connect 18 1 17 1;
#X connect 19 0 23 0;
#X connect 20 0 5 0;
#X connect 20 0 8 0;
#X connect 21 0 4 0;
#X connect 22 0 16 0;
#X connect 23 0 15 1;
