#N canvas 358 256 450 300 12;
#X obj 42 30 inlet~;
#X obj 185 14 inlet;
#X obj 42 195 *~;
#X obj 40 238 outlet~;
#X obj 184 60 / 4;
#X floatatom 184 84 5 0 0 0 - - - 0;
#X msg 60 118 \$1 10;
#X obj 60 142 line~;
#X obj 61 170 cos~;
#X obj 188 147 + 0.75;
#X obj 179 271 outlet~;
#X msg 188 173 \$1 10;
#X obj 188 197 line~;
#X obj 190 221 cos~;
#X obj 179 246 *~;
#X obj 186 37 unpack f f;
#X obj 292 79 - 1;
#X obj 292 102 abs;
#X obj 190 112 *;
#X connect 0 0 2 0;
#X connect 0 0 14 0;
#X connect 1 0 15 0;
#X connect 2 0 3 0;
#X connect 4 0 5 0;
#X connect 5 0 18 0;
#X connect 6 0 7 0;
#X connect 7 0 8 0;
#X connect 8 0 2 1;
#X connect 9 0 11 0;
#X connect 11 0 12 0;
#X connect 12 0 13 0;
#X connect 13 0 14 1;
#X connect 14 0 10 0;
#X connect 15 0 4 0;
#X connect 15 1 16 0;
#X connect 16 0 17 0;
#X connect 17 0 18 1;
#X connect 18 0 9 0;
#X connect 18 0 6 0;
