#N canvas 951 223 450 431 12;
#X obj 77 148 f;
#X obj 107 148 + 1;
#X obj 77 171 route 0 1;
#X obj 142 171 *;
#X obj 137 148 mod 2;
#X obj 102 194 del;
#X obj 178 148 / 100;
#X obj 78 22 inlet;
#X obj 78 249 bng 15 250 50 0 empty empty empty 17 7 0 10 #fcfcfc #000000 #000000;
#X obj 140 292 + 1;
#X obj 78 290 f;
#X obj 179 330 mod;
#X obj 98 365 outlet;
#X obj 186 407 outlet;
#X floatatom 121 100 5 0 0 0 - - - 0;
#X floatatom 163 114 5 0 0 0 - - - 0;
#X floatatom 216 108 5 0 0 0 - - - 0;
#X obj 77 97 bng 19 250 50 0 empty empty empty 0 -10 0 12 #fcfcfc #000000 #000000;
#X floatatom 92 316 5 0 0 0 - - - 0;
#X obj 180 354 == 0;
#X obj 180 381 select 1;
#X obj 80 58 unpack b f f f f;
#X floatatom 238 50 5 0 0 0 - - - 0;
#X obj 265 106 == 1;
#X obj 264 139 select 1;
#X obj 264 171 == 0;
#X connect 0 0 1 0;
#X connect 0 0 2 0;
#X connect 1 0 4 0;
#X connect 2 0 8 0;
#X connect 2 1 5 0;
#X connect 3 0 5 1;
#X connect 4 0 0 1;
#X connect 5 0 8 0;
#X connect 6 0 3 0;
#X connect 7 0 21 0;
#X connect 8 0 10 0;
#X connect 9 0 10 1;
#X connect 10 0 9 0;
#X connect 10 0 18 0;
#X connect 11 0 19 0;
#X connect 14 0 3 1;
#X connect 15 0 6 0;
#X connect 16 0 11 1;
#X connect 17 0 0 0;
#X connect 18 0 12 0;
#X connect 18 0 11 0;
#X connect 19 0 20 0;
#X connect 20 0 13 0;
#X connect 21 0 17 0;
#X connect 21 1 14 0;
#X connect 21 2 15 0;
#X connect 21 3 16 0;
#X connect 21 4 22 0;
#X connect 22 0 23 0;
#X connect 23 0 24 0;
#X connect 24 0 25 0;
#X connect 25 0 10 1;
