#N canvas 295 320 450 300 12;
#X msg 104 133 start;
#X obj 158 73 t b b;
#X obj 136 35 bng 19 250 50 0 empty empty empty 0 -10 0 12 #fcfcfc #000000 #000000;
#X obj 109 175 readsf~;
#X obj 109 216 outlet~;
#X obj 85 6 inlet;
#X msg 203 134 open hat.wav;
#X connect 0 0 3 0;
#X connect 1 0 0 0;
#X connect 1 1 6 0;
#X connect 2 0 1 0;
#X connect 3 0 4 0;
#X connect 5 0 2 0;
#X connect 6 0 3 0;
