#N canvas 604 353 720 300 12;
#X obj 118 81 *~;
#X obj 118 38 inlet~;
#X obj 202 35 inlet;
#X obj 120 179 outlet~;
#X obj 188 182 outlet~;
#X obj 123 131 panner;
#X obj 203 67 unpack f f f;
#X obj 236 127 pack f f;
#X obj 312 229 *;
#X floatatom 312 96 5 0 0 0 - - - 0;
#X obj 309 67 * 100;
#X obj 310 153 random;
#X obj 310 126 t b f;
#X obj 310 203 + 1;
#X obj 310 179 / 100;
#X connect 0 0 5 0;
#X connect 1 0 0 0;
#X connect 2 0 6 0;
#X connect 5 0 3 0;
#X connect 5 1 4 0;
#X connect 6 0 8 0;
#X connect 6 1 7 0;
#X connect 6 2 7 1;
#X connect 6 2 10 0;
#X connect 7 0 5 1;
#X connect 8 0 0 1;
#X connect 9 0 12 0;
#X connect 10 0 9 0;
#X connect 11 0 14 0;
#X connect 12 0 11 0;
#X connect 12 1 11 1;
#X connect 13 0 8 1;
#X connect 14 0 13 0;
