#N canvas 672 126 450 300 12;
#X obj 118 81 *~;
#X obj 118 38 inlet~;
#X obj 202 35 inlet;
#X obj 203 67 unpack f f;
#X obj 120 179 outlet~;
#X obj 188 182 outlet~;
#X obj 123 131 panner;
#X connect 0 0 6 0;
#X connect 1 0 0 0;
#X connect 2 0 3 0;
#X connect 3 0 0 1;
#X connect 3 1 6 1;
#X connect 6 0 4 0;
#X connect 6 1 5 0;
