#N canvas 880 353 450 300 12;
#X obj 118 81 *~;
#X obj 118 38 inlet~;
#X obj 202 35 inlet;
#X obj 120 179 outlet~;
#X obj 188 182 outlet~;
#X obj 123 131 panner;
#X obj 203 67 unpack f f f;
#X obj 236 127 pack f f;
#X obj 319 91 -1;
#X obj 319 117 abs;
#X obj 321 185 *;
#X connect 0 0 5 0;
#X connect 1 0 0 0;
#X connect 2 0 6 0;
#X connect 5 0 3 0;
#X connect 5 1 4 0;
#X connect 6 0 10 0;
#X connect 6 1 7 0;
#X connect 6 2 7 1;
#X connect 6 2 8 0;
#X connect 7 0 5 1;
#X connect 8 0 9 0;
#X connect 9 0 10 1;
#X connect 10 0 0 1;
