#N canvas 10 150 665 403 12;
#X msg 85 133 start;
#X obj 219 144 bng 19 250 50 0 empty empty empty 0 -10 0 12 #fcfcfc #000000 #000000;
#X obj 85 161 readsf~;
#X obj 85 187 outlet~;
#X obj 85 6 inlet;
#X floatatom 224 63 5 0 0 0 - - - 0;
#X obj 219 97 == 1;
#X obj 255 97 == 2;
#X obj 291 97 == 3;
#X obj 255 143 bng 19 250 50 0 empty empty empty 0 -10 0 12 #fcfcfc #000000 #000000;
#X obj 291 144 bng 19 250 50 0 empty empty empty 0 -10 0 12 #fcfcfc #000000 #000000;
#X obj 85 77 bng 19 250 50 0 empty empty empty 0 -10 0 12 #fcfcfc #000000 #000000;
#X obj 85 103 t b b;
#X obj 189 122 select 1;
#X obj 253 121 select 1;
#X obj 316 121 select 1;
#X obj 85 50 unpack f f;
#X floatatom 38 78 5 0 0 0 - - - 0;
#X msg 12 156 delay 50;
#X msg 296 169 open ../samples/rock_mp3/rock_crash.mp3;
#X msg 295 194 open ../samples/rock_mp3/rock_ride.mp3;
#X msg 295 217 open ../samples/rock_mp3/rock_bell.mp3;
#X connect 0 0 2 0;
#X connect 1 0 21 0;
#X connect 2 0 3 0;
#X connect 4 0 16 0;
#X connect 5 0 6 0;
#X connect 5 0 7 0;
#X connect 5 0 8 0;
#X connect 6 0 13 0;
#X connect 7 0 14 0;
#X connect 8 0 15 0;
#X connect 9 0 20 0;
#X connect 10 0 19 0;
#X connect 11 0 12 0;
#X connect 12 0 18 0;
#X connect 12 1 5 0;
#X connect 13 0 1 0;
#X connect 14 0 9 0;
#X connect 15 0 10 0;
#X connect 16 0 17 0;
#X connect 16 1 5 0;
#X connect 17 0 11 0;
#X connect 18 0 0 0;
#X connect 19 0 2 0;
#X connect 20 0 2 0;
#X connect 21 0 2 0;
